<svg xmlns="http://www.w3.org/2000/svg" viewBox="0 0 1600 900" preserveAspectRatio="xMidYMax slice">
<defs>
<linearGradient id="skyB" x1="0" y1="0" x2="0" y2="1"><stop offset="0" stop-color="#03101d"/><stop offset=".6" stop-color="#07304a"/><stop offset="1" stop-color="#0b4258"/></linearGradient>
<linearGradient id="twrB" x1="0" y1="0" x2="1" y2="0"><stop offset="0" stop-color="#0a2c44"/><stop offset=".5" stop-color="#12405e"/><stop offset="1" stop-color="#081f33"/></linearGradient>
<radialGradient id="glowB" cx=".5" cy=".9" r=".8"><stop offset="0" stop-color="rgba(63,191,168,.35)"/><stop offset="1" stop-color="rgba(63,191,168,0)"/></radialGradient>
</defs>
<rect width="1600" height="900" fill="url(#skyB)"/>
<circle cx="1180" cy="180" r="150" fill="url(#glowB)"/>
<rect x="60" y="430" width="110" height="470" fill="#07293f" opacity="0.5"/><rect x="200" y="380" width="80" height="520" fill="#07293f" opacity="0.4"/><rect x="310" y="470" width="130" height="430" fill="#07293f" opacity="0.45"/><rect x="520" y="410" width="90" height="490" fill="#07293f" opacity="0.35"/><rect x="660" y="460" width="120" height="440" fill="#07293f" opacity="0.4"/><rect x="1330" y="400" width="100" height="500" fill="#07293f" opacity="0.45"/><rect x="1460" y="450" width="120" height="450" fill="#07293f" opacity="0.5"/>
<rect x="980" y="230" width="256" height="670" rx="14" fill="url(#twrB)" stroke="rgba(63,191,168,.5)" stroke-width="2"/>
<rect x="1000" y="260" width="16" height="13" fill="#3fbfa8" opacity="0.49"/><rect x="1026" y="260" width="16" height="13" fill="#3fbfa8" opacity="0.49"/><rect x="1052" y="260" width="16" height="13" fill="#0d3a52" opacity=".5"/><rect x="1078" y="260" width="16" height="13" fill="#0d3a52" opacity=".5"/><rect x="1104" y="260" width="16" height="13" fill="#0d3a52" opacity=".5"/><rect x="1130" y="260" width="16" height="13" fill="#3fbfa8" opacity="0.42"/><rect x="1156" y="260" width="16" height="13" fill="#3fbfa8" opacity="0.38"/><rect x="1182" y="260" width="16" height="13" fill="#0d3a52" opacity=".5"/><rect x="1208" y="260" width="16" height="13" fill="#0d3a52" opacity=".5"/><rect x="1000" y="284" width="16" height="13" fill="#0d3a52" opacity=".5"/><rect x="1026" y="284" width="16" height="13" fill="#0d3a52" opacity=".5"/><rect x="1052" y="284" width="16" height="13" fill="#3fbfa8" opacity="0.63"/><rect x="1078" y="284" width="16" height="13" fill="#0d3a52" opacity=".5"/><rect x="1104" y="284" width="16" height="13" fill="#0d3a52" opacity=".5"/><rect x="1130" y="284" width="16" height="13" fill="#0d3a52" opacity=".5"/><rect x="1156" y="284" width="16" height="13" fill="#3fbfa8" opacity="0.65"/><rect x="1182" y="284" width="16" height="13" fill="#0d3a52" opacity=".5"/><rect x="1208" y="284" width="16" height="13" fill="#3fbfa8" opacity="0.3"/><rect x="1000" y="308" width="16" height="13" fill="#0d3a52" opacity=".5"/><rect x="1026" y="308" width="16" height="13" fill="#0d3a52" opacity=".5"/><rect x="1052" y="308" width="16" height="13" fill="#0d3a52" opacity=".5"/><rect x="1078" y="308" width="16" height="13" fill="#f5a524" opacity="0.59"/><rect x="1104" y="308" width="16" height="13" fill="#0d3a52" opacity=".5"/><rect x="1130" y="308" width="16" height="13" fill="#0d3a52" opacity=".5"/><rect x="1156" y="308" width="16" height="13" fill="#0d3a52" opacity=".5"/><rect x="1182" y="308" width="16" height="13" fill="#0d3a52" opacity=".5"/><rect x="1208" y="308" width="16" height="13" fill="#0d3a52" opacity=".5"/><rect x="1000" y="332" width="16" height="13" fill="#0d3a52" opacity=".5"/><rect x="1026" y="332" width="16" height="13" fill="#3fbfa8" opacity="0.74"/><rect x="1052" y="332" width="16" height="13" fill="#3fbfa8" opacity="0.63"/><rect x="1078" y="332" width="16" height="13" fill="#3fbfa8" opacity="0.53"/><rect x="1104" y="332" width="16" height="13" fill="#f5a524" opacity="0.37"/><rect x="1130" y="332" width="16" height="13" fill="#0d3a52" opacity=".5"/><rect x="1156" y="332" width="16" height="13" fill="#3fbfa8" opacity="0.42"/><rect x="1182" y="332" width="16" height="13" fill="#3fbfa8" opacity="0.44"/><rect x="1208" y="332" width="16" height="13" fill="#0d3a52" opacity=".5"/><rect x="1000" y="356" width="16" height="13" fill="#0d3a52" opacity=".5"/><rect x="1026" y="356" width="16" height="13" fill="#3fbfa8" opacity="0.39"/><rect x="1052" y="356" width="16" height="13" fill="#0d3a52" opacity=".5"/><rect x="1078" y="356" width="16" height="13" fill="#0d3a52" opacity=".5"/><rect x="1104" y="356" width="16" height="13" fill="#3fbfa8" opacity="0.36"/><rect x="1130" y="356" width="16" height="13" fill="#0d3a52" opacity=".5"/><rect x="1156" y="356" width="16" height="13" fill="#3fbfa8" opacity="0.79"/><rect x="1182" y="356" width="16" height="13" fill="#0d3a52" opacity=".5"/><rect x="1208" y="356" width="16" height="13" fill="#0d3a52" opacity=".5"/><rect x="1000" y="380" width="16" height="13" fill="#0d3a52" opacity=".5"/><rect x="1026" y="380" width="16" height="13" fill="#3fbfa8" opacity="0.83"/><rect x="1052" y="380" width="16" height="13" fill="#0d3a52" opacity=".5"/><rect x="1078" y="380" width="16" height="13" fill="#0d3a52" opacity=".5"/><rect x="1104" y="380" width="16" height="13" fill="#0d3a52" opacity=".5"/><rect x="1130" y="380" width="16" height="13" fill="#0d3a52" opacity=".5"/><rect x="1156" y="380" width="16" height="13" fill="#0d3a52" opacity=".5"/><rect x="1182" y="380" width="16" height="13" fill="#3fbfa8" opacity="0.52"/><rect x="1208" y="380" width="16" height="13" fill="#3fbfa8" opacity="0.83"/><rect x="1000" y="404" width="16" height="13" fill="#3fbfa8" opacity="0.28"/><rect x="1026" y="404" width="16" height="13" fill="#f5a524" opacity="0.47"/><rect x="1052" y="404" width="16" height="13" fill="#3fbfa8" opacity="0.84"/><rect x="1078" y="404" width="16" height="13" fill="#0d3a52" opacity=".5"/><rect x="1104" y="404" width="16" height="13" fill="#3fbfa8" opacity="0.28"/><rect x="1130" y="404" width="16" height="13" fill="#3fbfa8" opacity="0.34"/><rect x="1156" y="404" width="16" height="13" fill="#3fbfa8" opacity="0.4"/><rect x="1182" y="404" width="16" height="13" fill="#0d3a52" opacity=".5"/><rect x="1208" y="404" width="16" height="13" fill="#3fbfa8" opacity="0.71"/><rect x="1000" y="428" width="16" height="13" fill="#0d3a52" opacity=".5"/><rect x="1026" y="428" width="16" height="13" fill="#0d3a52" opacity=".5"/><rect x="1052" y="428" width="16" height="13" fill="#0d3a52" opacity=".5"/><rect x="1078" y="428" width="16" height="13" fill="#3fbfa8" opacity="0.27"/><rect x="1104" y="428" width="16" height="13" fill="#0d3a52" opacity=".5"/><rect x="1130" y="428" width="16" height="13" fill="#f5a524" opacity="0.75"/><rect x="1156" y="428" width="16" height="13" fill="#0d3a52" opacity=".5"/><rect x="1182" y="428" width="16" height="13" fill="#3fbfa8" opacity="0.4"/><rect x="1208" y="428" width="16" height="13" fill="#3fbfa8" opacity="0.77"/><rect x="1000" y="452" width="16" height="13" fill="#3fbfa8" opacity="0.81"/><rect x="1026" y="452" width="16" height="13" fill="#0d3a52" opacity=".5"/><rect x="1052" y="452" width="16" height="13" fill="#0d3a52" opacity=".5"/><rect x="1078" y="452" width="16" height="13" fill="#0d3a52" opacity=".5"/><rect x="1104" y="452" width="16" height="13" fill="#0d3a52" opacity=".5"/><rect x="1130" y="452" width="16" height="13" fill="#0d3a52" opacity=".5"/><rect x="1156" y="452" width="16" height="13" fill="#0d3a52" opacity=".5"/><rect x="1182" y="452" width="16" height="13" fill="#0d3a52" opacity=".5"/><rect x="1208" y="452" width="16" height="13" fill="#0d3a52" opacity=".5"/><rect x="1000" y="476" width="16" height="13" fill="#3fbfa8" opacity="0.77"/><rect x="1026" y="476" width="16" height="13" fill="#0d3a52" opacity=".5"/><rect x="1052" y="476" width="16" height="13" fill="#0d3a52" opacity=".5"/><rect x="1078" y="476" width="16" height="13" fill="#3fbfa8" opacity="0.73"/><rect x="1104" y="476" width="16" height="13" fill="#0d3a52" opacity=".5"/><rect x="1130" y="476" width="16" height="13" fill="#0d3a52" opacity=".5"/><rect x="1156" y="476" width="16" height="13" fill="#0d3a52" opacity=".5"/><rect x="1182" y="476" width="16" height="13" fill="#0d3a52" opacity=".5"/><rect x="1208" y="476" width="16" height="13" fill="#0d3a52" opacity=".5"/><rect x="1000" y="500" width="16" height="13" fill="#f5a524" opacity="0.82"/><rect x="1026" y="500" width="16" height="13" fill="#f5a524" opacity="0.83"/><rect x="1052" y="500" width="16" height="13" fill="#0d3a52" opacity=".5"/><rect x="1078" y="500" width="16" height="13" fill="#f5a524" opacity="0.33"/><rect x="1104" y="500" width="16" height="13" fill="#0d3a52" opacity=".5"/><rect x="1130" y="500" width="16" height="13" fill="#0d3a52" opacity=".5"/><rect x="1156" y="500" width="16" height="13" fill="#3fbfa8" opacity="0.63"/><rect x="1182" y="500" width="16" height="13" fill="#0d3a52" opacity=".5"/><rect x="1208" y="500" width="16" height="13" fill="#0d3a52" opacity=".5"/><rect x="1000" y="524" width="16" height="13" fill="#0d3a52" opacity=".5"/><rect x="1026" y="524" width="16" height="13" fill="#3fbfa8" opacity="0.8"/><rect x="1052" y="524" width="16" height="13" fill="#f5a524" opacity="0.32"/><rect x="1078" y="524" width="16" height="13" fill="#0d3a52" opacity=".5"/><rect x="1104" y="524" width="16" height="13" fill="#0d3a52" opacity=".5"/><rect x="1130" y="524" width="16" height="13" fill="#0d3a52" opacity=".5"/><rect x="1156" y="524" width="16" height="13" fill="#0d3a52" opacity=".5"/><rect x="1182" y="524" width="16" height="13" fill="#0d3a52" opacity=".5"/><rect x="1208" y="524" width="16" height="13" fill="#3fbfa8" opacity="0.45"/><rect x="1000" y="548" width="16" height="13" fill="#0d3a52" opacity=".5"/><rect x="1026" y="548" width="16" height="13" fill="#0d3a52" opacity=".5"/><rect x="1052" y="548" width="16" height="13" fill="#0d3a52" opacity=".5"/><rect x="1078" y="548" width="16" height="13" fill="#0d3a52" opacity=".5"/><rect x="1104" y="548" width="16" height="13" fill="#3fbfa8" opacity="0.61"/><rect x="1130" y="548" width="16" height="13" fill="#0d3a52" opacity=".5"/><rect x="1156" y="548" width="16" height="13" fill="#0d3a52" opacity=".5"/><rect x="1182" y="548" width="16" height="13" fill="#0d3a52" opacity=".5"/><rect x="1208" y="548" width="16" height="13" fill="#3fbfa8" opacity="0.71"/><rect x="1000" y="572" width="16" height="13" fill="#0d3a52" opacity=".5"/><rect x="1026" y="572" width="16" height="13" fill="#f5a524" opacity="0.75"/><rect x="1052" y="572" width="16" height="13" fill="#3fbfa8" opacity="0.48"/><rect x="1078" y="572" width="16" height="13" fill="#0d3a52" opacity=".5"/><rect x="1104" y="572" width="16" height="13" fill="#3fbfa8" opacity="0.54"/><rect x="1130" y="572" width="16" height="13" fill="#0d3a52" opacity=".5"/><rect x="1156" y="572" width="16" height="13" fill="#3fbfa8" opacity="0.62"/><rect x="1182" y="572" width="16" height="13" fill="#0d3a52" opacity=".5"/><rect x="1208" y="572" width="16" height="13" fill="#0d3a52" opacity=".5"/><rect x="1000" y="596" width="16" height="13" fill="#0d3a52" opacity=".5"/><rect x="1026" y="596" width="16" height="13" fill="#0d3a52" opacity=".5"/><rect x="1052" y="596" width="16" height="13" fill="#0d3a52" opacity=".5"/><rect x="1078" y="596" width="16" height="13" fill="#f5a524" opacity="0.37"/><rect x="1104" y="596" width="16" height="13" fill="#f5a524" opacity="0.5"/><rect x="1130" y="596" width="16" height="13" fill="#0d3a52" opacity=".5"/><rect x="1156" y="596" width="16" height="13" fill="#f5a524" opacity="0.36"/><rect x="1182" y="596" width="16" height="13" fill="#3fbfa8" opacity="0.45"/><rect x="1208" y="596" width="16" height="13" fill="#0d3a52" opacity=".5"/><rect x="1000" y="620" width="16" height="13" fill="#0d3a52" opacity=".5"/><rect x="1026" y="620" width="16" height="13" fill="#0d3a52" opacity=".5"/><rect x="1052" y="620" width="16" height="13" fill="#3fbfa8" opacity="0.58"/><rect x="1078" y="620" width="16" height="13" fill="#0d3a52" opacity=".5"/><rect x="1104" y="620" width="16" height="13" fill="#0d3a52" opacity=".5"/><rect x="1130" y="620" width="16" height="13" fill="#0d3a52" opacity=".5"/><rect x="1156" y="620" width="16" height="13" fill="#3fbfa8" opacity="0.76"/><rect x="1182" y="620" width="16" height="13" fill="#f5a524" opacity="0.84"/><rect x="1208" y="620" width="16" height="13" fill="#0d3a52" opacity=".5"/><rect x="1000" y="644" width="16" height="13" fill="#0d3a52" opacity=".5"/><rect x="1026" y="644" width="16" height="13" fill="#0d3a52" opacity=".5"/><rect x="1052" y="644" width="16" height="13" fill="#f5a524" opacity="0.53"/><rect x="1078" y="644" width="16" height="13" fill="#0d3a52" opacity=".5"/><rect x="1104" y="644" width="16" height="13" fill="#f5a524" opacity="0.72"/><rect x="1130" y="644" width="16" height="13" fill="#0d3a52" opacity=".5"/><rect x="1156" y="644" width="16" height="13" fill="#0d3a52" opacity=".5"/><rect x="1182" y="644" width="16" height="13" fill="#f5a524" opacity="0.47"/><rect x="1208" y="644" width="16" height="13" fill="#0d3a52" opacity=".5"/><rect x="1000" y="668" width="16" height="13" fill="#3fbfa8" opacity="0.34"/><rect x="1026" y="668" width="16" height="13" fill="#0d3a52" opacity=".5"/><rect x="1052" y="668" width="16" height="13" fill="#f5a524" opacity="0.47"/><rect x="1078" y="668" width="16" height="13" fill="#0d3a52" opacity=".5"/><rect x="1104" y="668" width="16" height="13" fill="#3fbfa8" opacity="0.31"/><rect x="1130" y="668" width="16" height="13" fill="#0d3a52" opacity=".5"/><rect x="1156" y="668" width="16" height="13" fill="#0d3a52" opacity=".5"/><rect x="1182" y="668" width="16" height="13" fill="#3fbfa8" opacity="0.45"/><rect x="1208" y="668" width="16" height="13" fill="#3fbfa8" opacity="0.26"/><rect x="1000" y="692" width="16" height="13" fill="#0d3a52" opacity=".5"/><rect x="1026" y="692" width="16" height="13" fill="#0d3a52" opacity=".5"/><rect x="1052" y="692" width="16" height="13" fill="#0d3a52" opacity=".5"/><rect x="1078" y="692" width="16" height="13" fill="#0d3a52" opacity=".5"/><rect x="1104" y="692" width="16" height="13" fill="#0d3a52" opacity=".5"/><rect x="1130" y="692" width="16" height="13" fill="#3fbfa8" opacity="0.55"/><rect x="1156" y="692" width="16" height="13" fill="#0d3a52" opacity=".5"/><rect x="1182" y="692" width="16" height="13" fill="#0d3a52" opacity=".5"/><rect x="1208" y="692" width="16" height="13" fill="#0d3a52" opacity=".5"/><rect x="1000" y="716" width="16" height="13" fill="#0d3a52" opacity=".5"/><rect x="1026" y="716" width="16" height="13" fill="#3fbfa8" opacity="0.66"/><rect x="1052" y="716" width="16" height="13" fill="#0d3a52" opacity=".5"/><rect x="1078" y="716" width="16" height="13" fill="#0d3a52" opacity=".5"/><rect x="1104" y="716" width="16" height="13" fill="#0d3a52" opacity=".5"/><rect x="1130" y="716" width="16" height="13" fill="#f5a524" opacity="0.49"/><rect x="1156" y="716" width="16" height="13" fill="#0d3a52" opacity=".5"/><rect x="1182" y="716" width="16" height="13" fill="#0d3a52" opacity=".5"/><rect x="1208" y="716" width="16" height="13" fill="#0d3a52" opacity=".5"/><rect x="1000" y="740" width="16" height="13" fill="#3fbfa8" opacity="0.45"/><rect x="1026" y="740" width="16" height="13" fill="#0d3a52" opacity=".5"/><rect x="1052" y="740" width="16" height="13" fill="#0d3a52" opacity=".5"/><rect x="1078" y="740" width="16" height="13" fill="#0d3a52" opacity=".5"/><rect x="1104" y="740" width="16" height="13" fill="#0d3a52" opacity=".5"/><rect x="1130" y="740" width="16" height="13" fill="#0d3a52" opacity=".5"/><rect x="1156" y="740" width="16" height="13" fill="#0d3a52" opacity=".5"/><rect x="1182" y="740" width="16" height="13" fill="#3fbfa8" opacity="0.26"/><rect x="1208" y="740" width="16" height="13" fill="#3fbfa8" opacity="0.67"/><rect x="1000" y="764" width="16" height="13" fill="#0d3a52" opacity=".5"/><rect x="1026" y="764" width="16" height="13" fill="#f5a524" opacity="0.62"/><rect x="1052" y="764" width="16" height="13" fill="#3fbfa8" opacity="0.83"/><rect x="1078" y="764" width="16" height="13" fill="#0d3a52" opacity=".5"/><rect x="1104" y="764" width="16" height="13" fill="#0d3a52" opacity=".5"/><rect x="1130" y="764" width="16" height="13" fill="#0d3a52" opacity=".5"/><rect x="1156" y="764" width="16" height="13" fill="#3fbfa8" opacity="0.4"/><rect x="1182" y="764" width="16" height="13" fill="#f5a524" opacity="0.79"/><rect x="1208" y="764" width="16" height="13" fill="#0d3a52" opacity=".5"/>
<line x1="1108" y1="230" x2="1108" y2="150" stroke="rgba(63,191,168,.7)" stroke-width="3"/>
<circle cx="1108" cy="146" r="5" fill="#3fbfa8"><animate attributeName="opacity" values="1;.2;1" dur="2.4s" repeatCount="indefinite"/></circle>
<rect x="0" y="860" width="1600" height="40" fill="#020a13"/>
<rect x="980" y="880" width="256" height="20" fill="rgba(63,191,168,.12)"/>
</svg>