<svg xmlns="http://www.w3.org/2000/svg" viewBox="0 0 1600 900" preserveAspectRatio="xMidYMax slice">
<defs>
<linearGradient id="hallI" x1="0" y1="0" x2="0" y2="1"><stop offset="0" stop-color="#020a13"/><stop offset=".58" stop-color="#04182b"/><stop offset="1" stop-color="#083049"/></linearGradient>
</defs>
<rect width="1600" height="900" fill="url(#hallI)"/>
<line x1="0" y1="520" x2="1600" y2="520" stroke="rgba(34,211,238,.18)"/>
<line x1="800" y1="520" x2="-200" y2="900" stroke="rgba(34,211,238,.10)" stroke-width="1.5"/><line x1="800" y1="520" x2="40" y2="900" stroke="rgba(34,211,238,.10)" stroke-width="1.5"/><line x1="800" y1="520" x2="280" y2="900" stroke="rgba(34,211,238,.10)" stroke-width="1.5"/><line x1="800" y1="520" x2="520" y2="900" stroke="rgba(34,211,238,.10)" stroke-width="1.5"/><line x1="800" y1="520" x2="760" y2="900" stroke="rgba(34,211,238,.10)" stroke-width="1.5"/><line x1="800" y1="520" x2="1000" y2="900" stroke="rgba(34,211,238,.10)" stroke-width="1.5"/><line x1="800" y1="520" x2="1240" y2="900" stroke="rgba(34,211,238,.10)" stroke-width="1.5"/><line x1="800" y1="520" x2="1480" y2="900" stroke="rgba(34,211,238,.10)" stroke-width="1.5"/><line x1="800" y1="520" x2="1720" y2="900" stroke="rgba(34,211,238,.10)" stroke-width="1.5"/><polygon points="300,120 205,520 395,520" fill="rgba(245,165,36,.055)"/><rect x="278" y="104" width="44" height="14" rx="4" fill="#0d3a52"/><circle cx="300" cy="122" r="5" fill="#f5a524" opacity=".85"/><polygon points="800,120 705,520 895,520" fill="rgba(245,165,36,.055)"/><rect x="778" y="104" width="44" height="14" rx="4" fill="#0d3a52"/><circle cx="800" cy="122" r="5" fill="#f5a524" opacity=".85"/><polygon points="1300,120 1205,520 1395,520" fill="rgba(245,165,36,.055)"/><rect x="1278" y="104" width="44" height="14" rx="4" fill="#0d3a52"/><circle cx="1300" cy="122" r="5" fill="#f5a524" opacity=".85"/>
<rect x="120" y="630" width="620" height="26" rx="6" fill="#0a2c44" stroke="rgba(34,211,238,.3)"/>
<rect x="860" y="630" width="620" height="26" rx="6" fill="#0a2c44" stroke="rgba(34,211,238,.3)"/>
<g><rect x="270" y="586" width="58" height="44" rx="4" fill="#0c3550" stroke="rgba(245,165,36,.55)" stroke-width="1.5"/><line x1="278" y1="600" x2="320" y2="600" stroke="rgba(245,165,36,.35)"/></g><g><rect x="430" y="586" width="58" height="44" rx="4" fill="#0c3550" stroke="rgba(245,165,36,.55)" stroke-width="1.5"/><line x1="438" y1="600" x2="480" y2="600" stroke="rgba(245,165,36,.35)"/></g><g><rect x="590" y="586" width="58" height="44" rx="4" fill="#0c3550" stroke="rgba(245,165,36,.55)" stroke-width="1.5"/><line x1="598" y1="600" x2="640" y2="600" stroke="rgba(245,165,36,.35)"/></g><g><rect x="905" y="586" width="58" height="44" rx="4" fill="#0c3550" stroke="rgba(245,165,36,.55)" stroke-width="1.5"/><line x1="913" y1="600" x2="955" y2="600" stroke="rgba(245,165,36,.35)"/></g><g><rect x="1065" y="586" width="58" height="44" rx="4" fill="#0c3550" stroke="rgba(245,165,36,.55)" stroke-width="1.5"/><line x1="1073" y1="600" x2="1115" y2="600" stroke="rgba(245,165,36,.35)"/></g><g><rect x="1225" y="586" width="58" height="44" rx="4" fill="#0c3550" stroke="rgba(245,165,36,.55)" stroke-width="1.5"/><line x1="1233" y1="600" x2="1275" y2="600" stroke="rgba(245,165,36,.35)"/></g>
<g stroke="#0a2c44" stroke-width="26" stroke-linecap="round" fill="none"><path d="M180,860 L180,700 L290,600 L330,480"/></g><g fill="#f5a524"><circle cx="180" cy="700" r="9"/><circle cx="290" cy="600" r="8"/><circle cx="330" cy="480" r="7"/></g><circle cx="330" cy="480" r="16" fill="none" stroke="rgba(245,165,36,.5)" stroke-width="2"/><g stroke="#0a2c44" stroke-width="26" stroke-linecap="round" fill="none"><path d="M1420,860 L1420,700 L1310,600 L1270,480"/></g><g fill="#f5a524"><circle cx="1420" cy="700" r="9"/><circle cx="1310" cy="600" r="8"/><circle cx="1270" cy="480" r="7"/></g><circle cx="1270" cy="480" r="16" fill="none" stroke="rgba(245,165,36,.5)" stroke-width="2"/>
<rect x="0" y="876" width="1600" height="24" fill="#020a13"/>
</svg>