<svg xmlns="http://www.w3.org/2000/svg" viewBox="0 0 1600 900" preserveAspectRatio="xMidYMax slice">
<defs>
<linearGradient id="offS" x1="0" y1="0" x2="0" y2="1"><stop offset="0" stop-color="#020a13"/><stop offset=".55" stop-color="#041a2c"/><stop offset="1" stop-color="#06263c"/></linearGradient>
<radialGradient id="alrm" cx=".5" cy=".5" r=".5"><stop offset="0" stop-color="rgba(239,68,68,.4)"/><stop offset="1" stop-color="rgba(239,68,68,0)"/></radialGradient>
</defs>
<rect width="1600" height="900" fill="url(#offS)"/>
<rect x="100" y="120" width="1400" height="400" fill="#031321" stroke="rgba(34,211,238,.2)"/>
<circle cx="434" cy="322" r="1.1" fill="#22d3ee" opacity="0.2"/><circle cx="226" cy="283" r="1.6" fill="#22d3ee" opacity="0.35"/><circle cx="1401" cy="480" r="2.0" fill="#22d3ee" opacity="0.34"/><circle cx="167" cy="468" r="1.3" fill="#22d3ee" opacity="0.41"/><circle cx="550" cy="216" r="2.3" fill="#22d3ee" opacity="0.18"/><circle cx="684" cy="231" r="2.2" fill="#22d3ee" opacity="0.38"/><circle cx="1378" cy="288" r="2.0" fill="#22d3ee" opacity="0.38"/><circle cx="396" cy="241" r="1.8" fill="#22d3ee" opacity="0.39"/><circle cx="1261" cy="279" r="1.7" fill="#22d3ee" opacity="0.2"/><circle cx="740" cy="447" r="1.7" fill="#22d3ee" opacity="0.28"/><circle cx="464" cy="331" r="1.7" fill="#22d3ee" opacity="0.34"/><circle cx="750" cy="405" r="1.5" fill="#22d3ee" opacity="0.29"/><circle cx="996" cy="214" r="1.4" fill="#22d3ee" opacity="0.39"/><circle cx="752" cy="278" r="1.1" fill="#22d3ee" opacity="0.19"/><circle cx="1377" cy="207" r="1.3" fill="#22d3ee" opacity="0.34"/><circle cx="1106" cy="472" r="1.3" fill="#22d3ee" opacity="0.44"/><circle cx="907" cy="372" r="2.2" fill="#22d3ee" opacity="0.44"/><circle cx="1332" cy="296" r="1.2" fill="#22d3ee" opacity="0.37"/><circle cx="860" cy="356" r="2.3" fill="#22d3ee" opacity="0.44"/><circle cx="976" cy="219" r="2.1" fill="#22d3ee" opacity="0.22"/><circle cx="1315" cy="357" r="2.1" fill="#22d3ee" opacity="0.32"/><circle cx="824" cy="242" r="2.2" fill="#22d3ee" opacity="0.46"/><circle cx="342" cy="219" r="1.8" fill="#22d3ee" opacity="0.33"/><circle cx="853" cy="241" r="1.2" fill="#22d3ee" opacity="0.17"/><circle cx="1193" cy="479" r="2.2" fill="#22d3ee" opacity="0.4"/><circle cx="209" cy="302" r="1.9" fill="#22d3ee" opacity="0.27"/><circle cx="1362" cy="270" r="2.0" fill="#22d3ee" opacity="0.19"/><circle cx="1173" cy="200" r="1.1" fill="#22d3ee" opacity="0.23"/><circle cx="691" cy="209" r="2.2" fill="#22d3ee" opacity="0.49"/><circle cx="151" cy="444" r="2.0" fill="#22d3ee" opacity="0.22"/><circle cx="640" cy="376" r="2.1" fill="#22d3ee" opacity="0.25"/><circle cx="925" cy="406" r="1.0" fill="#22d3ee" opacity="0.29"/><circle cx="260" cy="461" r="2.2" fill="#22d3ee" opacity="0.25"/><circle cx="709" cy="306" r="2.0" fill="#22d3ee" opacity="0.3"/><circle cx="488" cy="309" r="1.0" fill="#22d3ee" opacity="0.46"/><circle cx="695" cy="369" r="2.1" fill="#22d3ee" opacity="0.29"/><circle cx="1415" cy="409" r="1.4" fill="#22d3ee" opacity="0.37"/><circle cx="654" cy="343" r="1.7" fill="#22d3ee" opacity="0.16"/><circle cx="669" cy="347" r="1.9" fill="#22d3ee" opacity="0.37"/><circle cx="1385" cy="360" r="1.1" fill="#22d3ee" opacity="0.5"/><circle cx="469" cy="247" r="2.0" fill="#22d3ee" opacity="0.48"/><circle cx="649" cy="310" r="2.2" fill="#22d3ee" opacity="0.32"/><circle cx="363" cy="374" r="1.0" fill="#22d3ee" opacity="0.35"/><circle cx="547" cy="285" r="1.1" fill="#22d3ee" opacity="0.33"/><circle cx="325" cy="258" r="2.1" fill="#22d3ee" opacity="0.26"/><circle cx="1291" cy="277" r="2.3" fill="#22d3ee" opacity="0.18"/><line x1="120" y1="120" x2="120" y2="520" stroke="rgba(34,211,238,.16)" stroke-width="2"/><line x1="295" y1="120" x2="295" y2="520" stroke="rgba(34,211,238,.16)" stroke-width="2"/><line x1="470" y1="120" x2="470" y2="520" stroke="rgba(34,211,238,.16)" stroke-width="2"/><line x1="645" y1="120" x2="645" y2="520" stroke="rgba(34,211,238,.16)" stroke-width="2"/><line x1="820" y1="120" x2="820" y2="520" stroke="rgba(34,211,238,.16)" stroke-width="2"/><line x1="995" y1="120" x2="995" y2="520" stroke="rgba(34,211,238,.16)" stroke-width="2"/><line x1="1170" y1="120" x2="1170" y2="520" stroke="rgba(34,211,238,.16)" stroke-width="2"/><line x1="1345" y1="120" x2="1345" y2="520" stroke="rgba(34,211,238,.16)" stroke-width="2"/>
<circle cx="1280" cy="130" r="190" fill="url(#alrm)"><animate attributeName="opacity" values=".9;.35;.9" dur="2.2s" repeatCount="indefinite"/></circle>
<circle cx="1280" cy="118" r="9" fill="#ef4444"><animate attributeName="opacity" values="1;.25;1" dur="1.1s" repeatCount="indefinite"/></circle>
<rect x="160" y="640" width="120" height="10" rx="3" fill="#0a2c44"/><rect x="174" y="606" width="40" height="26" rx="3" fill="#155e75" opacity=".9"/><rect x="226" y="606" width="40" height="26" rx="3" fill="#155e75" opacity=".55"/><rect x="190" y="634" width="8" height="6" fill="#0a2c44"/><circle cx="394" cy="614" r="30" fill="rgba(239,68,68,.22)"/><rect x="360" y="640" width="120" height="10" rx="3" fill="#0a2c44"/><rect x="374" y="606" width="40" height="26" rx="3" fill="#ef4444" opacity=".9"/><rect x="426" y="606" width="40" height="26" rx="3" fill="#155e75" opacity=".55"/><rect x="390" y="634" width="8" height="6" fill="#0a2c44"/><rect x="560" y="640" width="120" height="10" rx="3" fill="#0a2c44"/><rect x="574" y="606" width="40" height="26" rx="3" fill="#155e75" opacity=".9"/><rect x="626" y="606" width="40" height="26" rx="3" fill="#155e75" opacity=".55"/><rect x="590" y="634" width="8" height="6" fill="#0a2c44"/><rect x="1000" y="640" width="120" height="10" rx="3" fill="#0a2c44"/><rect x="1014" y="606" width="40" height="26" rx="3" fill="#155e75" opacity=".9"/><rect x="1066" y="606" width="40" height="26" rx="3" fill="#155e75" opacity=".55"/><rect x="1030" y="634" width="8" height="6" fill="#0a2c44"/><circle cx="1234" cy="614" r="30" fill="rgba(239,68,68,.22)"/><rect x="1200" y="640" width="120" height="10" rx="3" fill="#0a2c44"/><rect x="1214" y="606" width="40" height="26" rx="3" fill="#ef4444" opacity=".9"/><rect x="1266" y="606" width="40" height="26" rx="3" fill="#155e75" opacity=".55"/><rect x="1230" y="634" width="8" height="6" fill="#0a2c44"/><rect x="1400" y="640" width="120" height="10" rx="3" fill="#0a2c44"/><rect x="1414" y="606" width="40" height="26" rx="3" fill="#155e75" opacity=".9"/><rect x="1466" y="606" width="40" height="26" rx="3" fill="#155e75" opacity=".55"/><rect x="1430" y="634" width="8" height="6" fill="#0a2c44"/><rect x="260" y="760" width="120" height="10" rx="3" fill="#0a2c44"/><rect x="274" y="726" width="40" height="26" rx="3" fill="#155e75" opacity=".9"/><rect x="326" y="726" width="40" height="26" rx="3" fill="#155e75" opacity=".55"/><rect x="290" y="754" width="8" height="6" fill="#0a2c44"/><rect x="460" y="760" width="120" height="10" rx="3" fill="#0a2c44"/><rect x="474" y="726" width="40" height="26" rx="3" fill="#155e75" opacity=".9"/><rect x="526" y="726" width="40" height="26" rx="3" fill="#155e75" opacity=".55"/><rect x="490" y="754" width="8" height="6" fill="#0a2c44"/><rect x="900" y="760" width="120" height="10" rx="3" fill="#0a2c44"/><rect x="914" y="726" width="40" height="26" rx="3" fill="#155e75" opacity=".9"/><rect x="966" y="726" width="40" height="26" rx="3" fill="#155e75" opacity=".55"/><rect x="930" y="754" width="8" height="6" fill="#0a2c44"/><rect x="1100" y="760" width="120" height="10" rx="3" fill="#0a2c44"/><rect x="1114" y="726" width="40" height="26" rx="3" fill="#155e75" opacity=".9"/><rect x="1166" y="726" width="40" height="26" rx="3" fill="#155e75" opacity=".55"/><rect x="1130" y="754" width="8" height="6" fill="#0a2c44"/><rect x="1300" y="760" width="120" height="10" rx="3" fill="#0a2c44"/><rect x="1314" y="726" width="40" height="26" rx="3" fill="#155e75" opacity=".9"/><rect x="1366" y="726" width="40" height="26" rx="3" fill="#155e75" opacity=".55"/><rect x="1330" y="754" width="8" height="6" fill="#0a2c44"/>
<line x1="0" y1="540" x2="1600" y2="540" stroke="rgba(239,68,68,.25)"><animate attributeName="y1" values="540;880;540" dur="7s" repeatCount="indefinite"/><animate attributeName="y2" values="540;880;540" dur="7s" repeatCount="indefinite"/></line>
<rect x="0" y="876" width="1600" height="24" fill="#020a13"/>
</svg>