<svg xmlns="http://www.w3.org/2000/svg" viewBox="0 0 100 100"><circle cx="51.4" cy="4.4" r="3.9" fill="#76a8a4"/><circle cx="61.6" cy="4.3" r="3.3" fill="#679e99"/><circle cx="43.5" cy="3.6" r="0.9" fill="#77a69c"/><circle cx="33.3" cy="4.4" r="0.9" fill="#8aaaa6"/><circle cx="71.5" cy="6.8" r="3.1" fill="#6ba19b"/><circle cx="23.9" cy="8.4" r="1.4" fill="#5c978d"/><circle cx="80.5" cy="11.5" r="2.7" fill="#68a09a"/><circle cx="56.4" cy="13.8" r="3.1" fill="#629b94"/><circle cx="45.1" cy="13.1" r="1.0" fill="#77aa9d"/><circle cx="15.6" cy="14.4" r="1.7" fill="#5d9891"/><circle cx="66.0" cy="15.1" r="2.6" fill="#67a19a"/><circle cx="35.3" cy="14.2" r="1.2" fill="#64978c"/><circle cx="87.9" cy="18.3" r="2.3" fill="#639b95"/><circle cx="26.5" cy="18.1" r="1.5" fill="#5d8f88"/><circle cx="74.6" cy="19.2" r="2.3" fill="#679b96"/><circle cx="9.0" cy="22.1" r="2.0" fill="#508781"/><circle cx="62.4" cy="24.0" r="2.5" fill="#669c97"/><circle cx="40.1" cy="23.0" r="1.3" fill="#74a39b"/><circle cx="19.3" cy="24.5" r="1.7" fill="#538b83"/><circle cx="81.7" cy="25.9" r="2.0" fill="#639b94"/><circle cx="31.5" cy="26.3" r="1.5" fill="#619990"/><circle cx="93.6" cy="26.8" r="2.0" fill="#699f9a"/><circle cx="72.1" cy="27.6" r="2.1" fill="#629b95"/><circle cx="4.6" cy="31.2" r="2.2" fill="#49837c"/><circle cx="14.3" cy="32.7" r="2.0" fill="#548a84"/><circle cx="25.2" cy="32.6" r="1.7" fill="#639893"/><circle cx="86.4" cy="34.4" r="1.8" fill="#639c93"/><circle cx="76.2" cy="35.2" r="1.8" fill="#649b93"/><circle cx="96.9" cy="36.4" r="1.8" fill="#6ba099"/><circle cx="20.7" cy="40.1" r="1.9" fill="#5b928b"/><circle cx="2.6" cy="41.2" r="2.5" fill="#48827c"/><circle cx="12.2" cy="42.1" r="2.3" fill="#558c85"/><circle cx="78.5" cy="43.9" r="1.4" fill="#6b9d99"/><circle cx="88.1" cy="43.9" r="1.5" fill="#6a9996"/><circle cx="97.8" cy="46.5" r="1.4" fill="#689993"/><circle cx="22.7" cy="50.2" r="2.5" fill="#528a84"/><circle cx="3.1" cy="51.2" r="2.8" fill="#48817c"/><circle cx="13.2" cy="51.8" r="2.5" fill="#4b8681"/><circle cx="86.0" cy="53.9" r="0.6" fill="#79928d"/><circle cx="96.2" cy="56.4" r="1.3" fill="#6aa094"/><circle cx="16.9" cy="60.6" r="3.0" fill="#46837e"/><circle cx="6.0" cy="61.0" r="3.1" fill="#43817c"/><circle cx="82.9" cy="62.1" r="0.9" fill="#629489"/><circle cx="90.6" cy="67.7" r="3.8" fill="#73a6a0"/><circle cx="80.0" cy="68.0" r="3.0" fill="#6ca29b"/><circle cx="11.3" cy="69.6" r="3.8" fill="#488781"/><circle cx="68.0" cy="69.0" r="2.4" fill="#599189"/><circle cx="35.7" cy="69.3" r="1.2" fill="#63958a"/><circle cx="24.6" cy="70.5" r="0.9" fill="#69988f"/><circle cx="42.9" cy="74.5" r="1.5" fill="#598d85"/><circle cx="74.6" cy="76.1" r="2.6" fill="#629891"/><circle cx="86.3" cy="76.9" r="3.1" fill="#5e9992"/><circle cx="60.6" cy="76.1" r="2.0" fill="#5f948d"/><circle cx="51.8" cy="76.4" r="1.7" fill="#5c9187"/><circle cx="17.3" cy="77.1" r="0.9" fill="#558a81"/><circle cx="30.7" cy="78.0" r="1.2" fill="#578c82"/><circle cx="67.0" cy="82.0" r="2.3" fill="#59928a"/><circle cx="38.9" cy="83.3" r="1.6" fill="#578b83"/><circle cx="79.7" cy="84.6" r="2.8" fill="#508c85"/><circle cx="57.9" cy="85.4" r="2.0" fill="#518880"/><circle cx="23.9" cy="84.9" r="1.2" fill="#568a81"/><circle cx="48.2" cy="85.8" r="1.7" fill="#598f85"/><circle cx="71.5" cy="90.7" r="2.5" fill="#49847d"/><circle cx="32.2" cy="90.8" r="1.5" fill="#488178"/><circle cx="61.9" cy="94.3" r="2.3" fill="#44837a"/><circle cx="41.7" cy="94.5" r="1.7" fill="#488178"/><circle cx="51.8" cy="95.6" r="2.0" fill="#45817b"/></svg>